Coordinates
version=1
nRows=29
nColumns=24
inDegrees=yes

Units are S.I. units (second, meters, Newtons, ...)
Angles are in degrees.

endheader
time	pelvis_tilt	pelvis_list	pelvis_rotation	pelvis_tx	pelvis_ty	pelvis_tz	hip_flexion_r	hip_adduction_r	hip_rotation_r	knee_angle_r	ankle_angle_r	subtalar_angle_r	mtp_angle_r	hip_flexion_l	hip_adduction_l	hip_rotation_l	knee_angle_l	ankle_angle_l	subtalar_angle_l	mtp_angle_l	lumbar_extension	lumbar_bending	lumbar_rotation
      0.84683333	      0.42681085	     -5.10850558	     -3.14167280	     -0.50991545	      1.01729873	      0.31509353	      9.78186717	      7.67630540	     -4.68110541	    -12.13324964	     -2.82003784	    -12.25395215	     -1.21067005	     16.09803283	    -10.54784352	     -7.80456828	    -72.74683497	      0.57184042	    -14.96509364	    -19.17428462	    -10.85469324	      7.54254040	      6.58922148
      0.85100000	      0.48110383	     -4.93971034	     -3.29779032	     -0.50485539	      1.01820290	      0.31565742	      9.31466380	      7.52429233	     -4.54219941	    -11.97166878	     -2.62568047	    -12.03648351	     -1.18314338	     16.62022355	    -10.38496575	     -7.88823565	    -72.58349540	      0.79581519	    -15.10837684	    -19.21814703	    -10.95614261	      7.29525742	      6.85280056
      0.85516667	      0.50060422	     -4.84696241	     -3.41606947	     -0.49973303	      1.01899213	      0.31618722	      8.85565969	      7.45584422	     -4.43210102	    -11.74948562	     -2.52645578	    -11.99949834	     -1.17570904	     17.18507914	    -10.30986293	     -7.92702294	    -72.40044027	      1.05489498	    -15.23097556	    -19.22741455	    -10.98953668	      7.15693433	      6.90951910
      0.85933333	      0.56760192	     -4.66994508	     -3.58534251	     -0.49465028	      1.01989210	      0.31676039	      8.36635374	      7.28775127	     -4.28996167	    -11.56793866	     -2.34182172	    -11.74852025	     -1.13970966	     17.65121651	    -10.14334287	     -8.04415918	    -72.09744704	      1.23494327	    -15.37081541	    -19.27894457	    -11.09456773	      6.89221320	      7.17417172
      0.86350000	      0.58561627	     -4.58423873	     -3.70689700	     -0.48953516	      1.02061705	      0.31728040	      7.90812127	      7.21956210	     -4.20023793	    -11.34022077	     -2.24851844	    -11.69885039	     -1.13010273	     18.18707227	    -10.07908404	     -8.09984076	    -71.79875892	      1.48641509	    -15.48258697	    -19.29044035	    -11.12394887	      6.75988005	      7.23177009
      0.86766667	      0.67994489	     -4.39467787	     -3.88471942	     -0.48442319	      1.02154080	      0.31784046	      7.38379288	      7.02534469	     -4.07809486	    -11.14508186	     -2.06120048	    -11.39430962	     -1.08711949	     18.57637522	     -9.89962469	     -8.24854731	    -71.35072253	      1.62962898	    -15.61152857	    -19.34585162	    -11.25834402	      6.46242911	      7.49409208
      0.87183333	      0.81812165	     -4.26754824	     -4.05416314	     -0.47931215	      1.02246915	      0.31841189	      6.79385669	      6.89868191	     -3.95603703	    -10.91089520	     -1.93227906	    -11.22509379	     -1.02015597	     18.90759876	     -9.79698338	     -8.39579732	    -70.87371945	      1.83168477	    -15.74832000	    -19.43485783	    -11.44066948	      6.25437412	      7.70986671
      0.87600000	      0.84745052	     -4.12735264	     -4.19683545	     -0.47415690	      1.02319103	      0.31890846	      6.32694092	      6.75309139	     -3.88898752	    -10.68796632	     -1.80689528	    -11.02593332	     -0.97598744	     19.35598805	     -9.67171854	     -8.50410373	    -70.35124718	      1.99694572	    -15.82261226	    -19.48879820	    -11.47497978	      6.04110935	      7.83194655
      0.88016667	      0.93000615	     -3.99042195	     -4.35091138	     -0.46902197	      1.02397451	      0.31938689	      5.80309351	      6.60198096	     -3.81977172	    -10.46278386	     -1.66257954	    -10.78882006	     -0.92433234	     19.71997353	     -9.54740751	     -8.63822463	    -69.76147236	      2.16397980	    -15.92264555	    -19.55057376	    -11.57749411	      5.83554476	      8.00244169
      0.88433333	      1.01089956	     -3.85788763	     -4.50334124	     -0.46385645	      1.02472405	      0.31988595	      5.27617867	      6.45509546	     -3.76152767	    -10.22964677	     -1.53021366	    -10.56871593	     -0.87167209	     20.06592833	     -9.43503154	     -8.78175520	    -69.11799321	      2.32217281	    -16.00687050	    -19.61280180	    -11.67486792	      5.61287001	      8.15475347
      0.88850000	      1.10218243	     -3.72887518	     -4.65645400	     -0.45870286	      1.02545733	      0.32035709	      4.73926532	      6.30643694	     -3.70445326	     -9.99593940	     -1.39593288	    -10.33951200	     -0.81651966	     20.38206686	     -9.32306003	     -8.93051609	    -68.41807298	      2.47201593	    -16.08706878	    -19.67761272	    -11.78406928	      5.40784697	      8.31878237
      0.89266667	      1.20687370	     -3.60009223	     -4.81401844	     -0.45353686	      1.02618145	      0.32082579	      4.18817420	      6.15308788	     -3.65377932	     -9.76292194	     -1.25614438	    -10.10530336	     -0.75711642	     20.65991548	     -9.21291839	     -9.09314714	    -67.65960035	      2.61342267	    -16.16306379	    -19.74721470	    -11.90732237	      5.19935684	      8.48051687
      0.89683333	      1.31936739	     -3.47482397	     -4.96946768	     -0.44837111	      1.02688529	      0.32128103	      3.62821078	      6.00004644	     -3.60433207	     -9.52620443	     -1.12213037	     -9.87128020	     -0.69608548	     20.90944443	     -9.10554639	     -9.26207349	    -66.84570757	      2.75046139	    -16.22486050	    -19.82083354	    -12.03738817	      4.99191770	      8.64348876
      0.90100000	      1.43833299	     -3.35905928	     -5.13870111	     -0.44320416	      1.02756680	      0.32174293	      3.06158524	      5.85494732	     -3.53397720	     -9.28920901	     -0.99180497	     -9.66022982	     -0.61297452	     21.12766421	     -9.01261632	     -9.45241172	    -65.98178017	      2.89942485	    -16.33532008	    -19.92382060	    -12.18170805	      4.79254376	      8.82781178
      0.90516667	      1.50686580	     -3.24379885	     -5.28949993	     -0.43802239	      1.02811722	      0.32217700	      2.55522780	      5.71089768	     -3.49243947	     -9.06505182	     -0.85172217	     -9.44245385	     -0.55155127	     21.39158629	     -8.92062129	     -9.62182451	    -65.07323318	      2.99963488	    -16.34826892	    -20.00119402	    -12.25221829	      4.60028966	      8.96694682
      0.90933333	      1.62068366	     -3.13414215	     -5.46034979	     -0.43283951	      1.02871206	      0.32262944	      1.99648096	      5.56788224	     -3.41736144	     -8.82998075	     -0.73475080	     -9.24185659	     -0.47343338	     21.57397607	     -8.83671677	     -9.82748293	    -64.10708937	      3.13527833	    -16.43967779	    -20.10634333	    -12.38592871	      4.40379805	      9.15570537
      0.91350000	      1.67814072	     -3.02639000	     -5.61881728	     -0.42764851	      1.02916876	      0.32306150	      1.50822959	      5.42928835	     -3.36019031	     -8.61693810	     -0.59063930	     -9.04381858	     -0.41598458	     21.80716810	     -8.75886842	    -10.02102803	    -63.09691423	      3.21515611	    -16.45581451	    -20.18665570	    -12.44223627	      4.21992425	      9.29669786
      0.91766667	      1.80657723	     -2.93238842	     -5.78968934	     -0.42248063	      1.02969923	      0.32352370	      0.93439614	      5.29983071	     -3.26037526	     -8.37753877	     -0.48685038	     -8.87543656	     -0.34400766	     21.93378028	     -8.69576968	    -10.24189931	    -62.03373109	      3.33851429	    -16.52191014	    -20.29551504	    -12.59344579	      4.02553880	      9.49067486
      0.92183333	      1.85559288	     -2.83803759	     -5.95962796	     -0.41728540	      1.03006151	      0.32396502	      0.46154770	      5.17313169	     -3.17899231	     -8.17521501	     -0.34324256	     -8.70553327	     -0.28726980	     22.13112478	     -8.63947396	    -10.46347945	    -60.92615183	      3.40833508	    -16.55536824	    -20.38675241	    -12.64085082	      3.85464659	      9.64121924
      0.92600000	      1.91681641	     -2.75503922	     -6.13002260	     -0.41210306	      1.03039690	      0.32441760	     -0.02747276	      5.05808799	     -3.06988658	     -7.96129238	     -0.22948408	     -8.56370778	     -0.23315199	     22.29529324	     -8.59671064	    -10.69280244	    -59.77559887	      3.49671559	    -16.59317218	    -20.48209156	    -12.70953823	      3.68247102	      9.81675934
      0.93016667	      1.87299660	     -2.70793915	     -6.25082697	     -0.40690892	      1.03048526	      0.32472161	     -0.39750471	      4.98695059	     -3.02200993	     -7.76121522	     -0.18568490	     -8.47991196	     -0.21100517	     22.58437042	     -8.57399685	    -10.84838005	    -58.62306000	      3.64011384	    -16.60824634	    -20.52517616	    -12.64885254	      3.59948195	      9.90160482
      0.93433333	      2.01201303	     -2.62474025	     -6.48018635	     -0.40175772	      1.03088351	      0.32530487	     -0.95300660	      4.86085869	     -2.84370948	     -7.58305588	      0.03249053	     -8.30851272	     -0.15708286	     22.59247474	     -8.55874662	    -11.18818239	    -57.34238621	      3.64773431	    -16.70046946	    -20.63570362	    -12.81647742	      3.39804292	     10.15217684
      0.93850000	      2.04885606	     -2.56887611	     -6.65649393	     -0.39657845	      1.03105072	      0.32577530	     -1.40303148	      4.77432284	     -2.70677201	     -7.39343976	      0.13552153	     -8.24181664	     -0.11142427	     22.71836798	     -8.55561512	    -11.45073493	    -56.05312917	      3.71725174	    -16.71916022	    -20.74089143	    -12.85554787	      3.25926331	     10.32843225
      0.94266667	      2.04886763	     -2.52984082	     -6.82434233	     -0.39140210	      1.03110543	      0.32620567	     -1.80720221	      4.70646076	     -2.57389337	     -7.21902842	      0.25402361	     -8.16047228	     -0.07161427	     22.87185958	     -8.56856679	    -11.70710931	    -54.73280698	      3.78884177	    -16.75918107	    -20.84167940	    -12.85758703	      3.14707155	     10.48985044
      0.94683333	      2.05633996	     -2.49627160	     -7.00070372	     -0.38623428	      1.03113267	      0.32665686	     -2.21318300	      4.64240417	     -2.42337292	     -7.05730474	      0.38002247	     -8.09529427	     -0.03431133	     22.99137683	     -8.59125541	    -11.98682104	    -53.36071675	      3.84842234	    -16.80327320	    -20.94672725	    -12.86818738	      3.03708117	     10.65479923
      0.95100000	      2.04011086	     -2.48056880	     -7.17132859	     -0.38107073	      1.03107467	      0.32709782	     -2.59049486	      4.59918187	     -2.27317275	     -6.90387667	      0.50048252	     -8.04445074	     -0.00013550	     23.12015961	     -8.63459270	    -12.26779470	    -51.95393378	      3.91791233	    -16.83805607	    -21.05664913	    -12.85456375	      2.95096615	     10.82280510
      0.95516667	      1.99648784	     -2.46900840	     -7.33510593	     -0.37588960	      1.03093508	      0.32750201	     -2.93563445	      4.56106876	     -2.12455584	     -6.75825233	      0.62317348	     -8.00427310	      0.02833971	     23.25799222	     -8.67787527	    -12.54964208	    -50.50149376	      3.97664800	    -16.87277262	    -21.16273802	    -12.80921295	      2.87825752	     10.97310380
      0.95933333	      1.98866169	     -2.47600052	     -7.51440359	     -0.37071453	      1.03082119	      0.32797513	     -3.32213049	      4.53994634	     -1.95158091	     -6.60630464	      0.70649262	     -7.99315215	      0.06378140	     23.32492444	     -8.75275745	    -12.87257323	    -48.99923855	      4.03868577	    -16.85084076	    -21.32439815	    -12.80929034	      2.81074293	     11.20219720
      0.96350000	      1.85729805	     -2.50456396	     -7.58750737	     -0.36552169	      1.03040977	      0.32816536	     -3.56974872	      4.55341984	     -1.90056568	     -6.47872271	      0.81179382	     -7.97996048	      0.07115795	     23.55686493	     -8.79901457	    -13.05111143	    -47.50106798	      4.11962343	    -16.84700019	    -21.36502447	    -12.65628390	      2.81954284	     11.21304008
